<svg xmlns="http://www.w3.org/2000/svg" viewBox="0 0 512 512"><circle cx="256" cy="256" r="256" fill="#f95428"/><path d="M121.5 390.5A256 256 0 0 1 99.7 53.2a256 256 0 1 0 359 359 256 256 0 0 1-337.2-21.7z" fill="#e54728"/><path d="M219.5 329a9.5 9.5 0 0 1-6-16.9 68.6 68.6 0 0 1 84.8-1.2 9.5 9.5 0 0 1-11.5 15 49.7 49.7 0 0 0-61.3 1 9.4 9.4 0 0 1-6 2z" fill="#e54728"/><path d="M177.8 228.8c0-4-.7-8-2-11.6a139.8 139.8 0 0 0 48.7-4.6 9.5 9.5 0 0 0-5-18.3C152 212.7 123 169.8 121.8 168a9.5 9.5 0 0 0-16 10.3c.4.5 6.7 10.2 19.8 19.9a35.1 35.1 0 1 0 52.2 30.6z" fill="#4d4d4d"/><path d="M260.5 257a110 110 0 0 0-104.1 72.8 9.5 9.5 0 0 0 17.9 6.3 91 91 0 0 1 86.2-60 91 91 0 0 1 86.2 60 9.5 9.5 0 1 0 17.9-6.3 110 110 0 0 0-104.1-72.7z" fill="#4d4d4d"/><path d="M403.4 165.2a9.5 9.5 0 0 0-13.2 2.8c-1.2 1.8-30.3 44.7-97.7 26.4a9.5 9.5 0 0 0-5 18.3 139.8 139.8 0 0 0 48.7 4.5 35.1 35.1 0 1 0 50.2-19 84.4 84.4 0 0 0 19.8-20 9.5 9.5 0 0 0-2.8-13z" fill="#4d4d4d"/></svg>