<svg xmlns="http://www.w3.org/2000/svg" viewBox="0 0 512 512"><circle cx="256" cy="256" r="256" fill="#ffd93b"/><g fill="#f4c534"><path d="M512 256A256 256 0 0 1 56.7 416.7a256 256 0 0 0 360-360c58.1 47 95.3 118.8 95.3 199.3z"/><path d="M268.3 196.8c0 27.9-28.7 50.5-58 50.5s-53-22.6-53-50.4 23.8-50.5 53-50.5c29.3 0 58 22.6 58 50.4z"/></g><path d="M467.6 162.8c0 26-228.1 77.5-254.2 77.5a47.1 47.1 0 1 1 0-94.3c26 0 254.2-9.2 254.2 16.8z" fill="#dee4e9"/><path d="M472.3 162.7c.4 7.7-7.6 14.5-17.7 15.1-10 .6-18.5-5.1-18.6-12.8-.4-7.7 7.5-14.3 17.6-14.9 10-.8 18.5 5 18.7 12.6z" fill="#3e4347"/><path d="M466 159.8c-.7 1.4-3.4 1.6-6 .6-2.8-1.3-4.2-3.4-3.6-4.8.6-1.4 3-1.6 5.9-.6 2.5 1.3 4.3 3.4 3.6 4.8z" fill="#5a5f63"/><path d="M254.5 201.5c0 36.2-37.3 65.6-75.3 65.6s-69-29.3-69-65.5 30.9-65.6 69-65.6 75.3 29.3 75.3 65.5z" fill="#f4c534"/><path d="M398.4 165.6c0 33.8-181.4 92.4-215.2 92.4a61.3 61.3 0 0 1 0-122.5c33.8 0 215.2-3.7 215.2 30.1z" fill="#fff"/><path d="M398 167.8C390.5 202 216.3 258 183.2 258a61.4 61.4 0 0 1-46.3-101.4 63 63 0 0 0 58 81.6c28.7.6 162.8-38 203.1-70.4z" fill="#e9eff4"/><path d="M404.5 165.5c.5 10-9.9 18.8-23 19.6-13 .7-24-6.7-24.2-16.7-.5-10 9.9-18.6 23-19.3 13-1 24 6.4 24.2 16.4z" fill="#3e4347"/><path d="M396.3 161.6c-.9 1.8-4.4 2.1-7.7.8-3.6-1.6-5.6-4.4-4.7-6.2s4-2 7.6-.7c3.3 1.6 5.6 4.3 4.8 6.1z" fill="#5a5f63"/><g fill="#3e4347"><path d="M97.5 123.5s62-54.3 128.2-26.6c0 0-18.7-89.2-128.2 26.6z"/><path d="M404.5 95s-74.4-35.2-130.5 9.7c0 0-6.6-91 130.5-9.6z"/><path d="M343.8 470.4c-123.2 89.1-151.6-82.1-99-145.2 20.3-24.5 58-43.2 105.4-46.7L322.7 256c13.4 7.6 42.1 23.5 46.4 25.9-49.7 14-74 50.3-74.8 102.3-1 66.3 30.7 77.4 49.5 86.2z"/></g><path d="M221 385.2c-2 14.7-1.8 29.8.5 44 7.2 21.6 23.3 31.5 29.2 25.9 8.2-6.8 5.5-26.4 6.5-46.6-.1-21.3 3.9-44-4.9-52.4-6.5-7.2-24.1 5-31.3 29.1z" fill="#373c3f"/><path d="M289 405.8a51.2 51.2 0 0 0-27.2-27.8c-12.4-5.4-22.3 0-24.3 7.3-.2.8-.8 1.4-1.7 1.8-1.4.6-3.3.5-5.6 0-3.6-.8-6.7-.4-9.5.3a156.5 156.5 0 0 0-.3 33.8c9.4 15.8 18.9 34.7 35.5 38.2 17.3 4.3 44.5-22.7 33-53.6z" fill="#e24b4b"/><g opacity=".2"><path d="M257.7 391.6c5.4 2.5 10.6 2.8 11.7.2 1.2-2.6-2.7-7-8.5-9.2-5.9-2.3-11.2-1.7-11.8.7-.7 2.4 3.2 5.8 8.6 8.3z" fill="#fff"/></g><g fill="#d03f3f"><path d="M249.7 376l-1.5.3 1.5-.3z"/><path d="M245 377.2a13 13 0 0 0-7.5 8c-.3 1-.8 1.5-1.7 1.9-1.4.6-3.3.5-5.6 0-3.5-.9-6.7-.5-9.5.3v.7c4.2 0 9.4 1.2 13.8 5.4 11.7 9 25.3 30.9 28.6 40 2-1-12.7-31.6-21.1-39.7-5.1-7.9-1.4-14.1 3-16.6z"/><path d="M251 445c-12.8-7.2-21.1-19.7-31.3-35.5.1 4 .3 7.8.7 11.7 9.3 15.8 18.8 34.7 35.4 38.2 9.3 1.6 20.5-3.8 28.2-14.8-1 1-17 9.5-33 .3z"/></g></svg>