<?xml version="1.0" encoding="UTF-8"?>
<!DOCTYPE svg PUBLIC "-//W3C//DTD SVG 1.0//EN" "http://www.w3.org/TR/2001/REC-SVG-20010904/DTD/svg10.dtd">
<!-- Creator: CorelDRAW X8 -->
<svg xmlns="http://www.w3.org/2000/svg" xml:space="preserve" width="54mm" height="12mm" version="1.0" style="shape-rendering:geometricPrecision; text-rendering:geometricPrecision; image-rendering:optimizeQuality; fill-rule:evenodd; clip-rule:evenodd"
viewBox="0 0 5400 1200"
 xmlns:xlink="http://www.w3.org/1999/xlink">
 <defs>
  <style type="text/css">
   <![CDATA[
    .fil0 {fill:black;fill-rule:nonzero}
   ]]>
  </style>
 </defs>
 <g id="Camada_x0020_1">
  <metadata id="CorelCorpID_0Corel-Layer"/>
  <path class="fil0" d="M45 0l-45 218 435 0 -207 982 268 0 208 -982c936,0 -392,0 545,0l46 -218 -1250 0z"/>
  <path class="fil0" d="M2086 590l3 0 37 288 -197 0 157 -288zm-568 610l236 0 88 -155 304 0 21 155 226 0 -147 -842 -228 0 -500 842z"/>
  <path class="fil0" d="M674 1200l225 0 74 -356 301 0 -74 356 225 0 176 -842 -225 0 -66 315 -301 0 66 -315 -226 0 -175 842z"/>
  <path class="fil0" d="M3207 358l-861 0 33 194 252 0 -137 648 226 0 137 -648 240 0 110 -194z"/>
  <path class="fil0" d="M3374 358l204 0 147 842 -227 0 -20 -155 -305 0 -87 155 -237 0 192 -322 417 0 -84 -520z"/>
  <path class="fil0" d="M3592 552l-34 -194 809 0c151,0 243,102 243,251 0,213 -158,319 -362,319l-194 0 -58 272 -219 0 95 -453 374 0c103,0 145,-47 145,-118 0,-80 -71,-77 -140,-77l-659 0z"/>
  <path class="fil0" d="M4596 552l0 0c-21,-118 -108,-194 -239,-194l790 0c151,0 243,102 243,251 0,213 -158,319 -362,319l-195 0 -57 272 -220 0 96 -453 374 0c102,0 145,-47 145,-118 0,-80 -72,-77 -140,-77l-435 0z"/>
 </g>
</svg>
