<svg xmlns="http://www.w3.org/2000/svg" width="54mm" height="12mm" viewBox="0 0 5400 1200"><path class="logo-t1" fill="#FFF" d="M45 0L0 218h435l-207 982h268l208-982h545l46-218H45z"/><path class="logo-h1" fill="#FFF" d="M674 1200h225l74-356h301l-74 356h225l176-842h-225l-66 315h-301l66-315H849l-175 842z"/><path class="logo-a1" fill="#FFF" d="M2086 590h3l37 288h-197l157-288zm-568 610h236l88-155h304l21 155h226l-147-842h-228l-500 842z"/><path class="logo-t2" fill="#FFF" d="M3207 358h-861l33 194h252l-137 648h226l137-648h240l110-194z"/><path class="logo-a2" fill="#FFF" d="M3334 358h203l147 842h-227l-20-155h-305l-87 155h-236l191-322h417l-83-520z"/><path class="logo-p1" fill="#FFF" d="M3549 552l-32-194h830c151 0 243 102 243 251 0 213-158 319-362 319h-195l-58 272h-219l95-453h374c103 0 145-47 145-118 0-80-71-77-139-77h-682z"/><path class="logo-p2" fill="#FFF" d="M4202 552l145-194h789c151 0 243 102 243 251 0 213-158 319-362 319h-194l-58 272h-219l95-453h374c103 0 145-47 145-118 0-80-71-77-140-77h-818z"/></svg>