<svg xmlns="http://www.w3.org/2000/svg" viewBox="0 0 9000 1515"><path d="M5267 605c12-83 67-110 161-110 87 0 122 32 122 85 0 116-136 109-235 114-227 19-438 63-438 300 0 183 124 249 288 249 128 0 213-30 268-110h3v27c0 17 0 27 7 58h285c-5-16-12-36-12-68 0-48 12-104 27-166 19-83 87-327 87-445 0-172-159-232-404-232-217 0-389 68-433 298h274zm-100 367c0-169 262-100 336-160h1c-8 80-44 252-220 252-59 0-117-22-117-92z" fill="#FFFFFF" class="logo-a2"/><path d="M7910 1515h290l84-411h3c53 104 142 139 258 139 300 0 455-291 455-552 0-203-92-384-316-384-122 0-197 43-264 130h-3l20-104h-281l-246 1182zm580-493c-107 0-148-79-148-173 0-129 61-320 216-320 132 0 152 100 152 177 0 131-61 316-220 316z" fill="#FFFFFF" class="logo-p2"/><path d="M6895 1515h290l83-411h4c53 104 141 139 257 139 301 0 456-291 456-552 0-203-92-384-316-384-122 0-198 43-264 130h-3l20-104h-281l-246 1182zm580-493c-108 0-149-79-149-173 0-129 62-320 217-320 131 0 152 100 152 177 0 131-61 316-220 316z" fill="#FFFFFF" class="logo-p1"/><path d="M5539 1515h333l296-515h428l29 218h319L6745 0h-321l-885 1515zm980-1189h4l46 438h-278l228-438z" fill="#FFFFFF" class="logo-a3"/><path d="M4429 1218h290L4974 0h-290l-255 1218z" fill="#FFFFFF" class="logo-l1"/><path d="M4400 846c7-49 10-99 10-152 0-254-175-387-404-387-321 0-527 237-527 551 0 259 179 385 425 385 213 0 396-80 464-293h-283c-23 60-69 97-169 97-96 0-149-47-157-141 0-29 2-41 3-60h638zm-617-162c32-111 92-181 213-181 97 0 143 80 135 181h-348z" fill="#FFFFFF" class="logo-e1"/><path d="M3475 333h-290l-102 479c-25 124-78 210-201 210-67 0-96-40-96-92 0-33 4-67 12-106l101-491h-290l-114 537c-9 39-17 82-17 141 0 48 23 232 264 232 121 0 223-46 290-146h3l-25 121h278l187-885z" fill="#FFFFFF" class="logo-u1"/><path d="M2474 333h-276l-26 128h-3c-41-103-111-154-249-154-313 0-471 293-471 573 0 218 104 363 309 363 107 0 187-37 257-121h4l-82 393h290l247-1182zm-590 689c-103 0-145-74-145-169 0-130 61-324 223-324 104 0 149 83 149 179 0 131-69 314-227 314z" fill="#FFFFFF" class="logo-q1"/><path d="M0 1515h333l283-515h428l29 218h319L1193 0H872L0 1515zM968 326h3l46 438H739l229-438z" fill="#FFFFFF" class="logo-a1"/></svg>
