<svg xmlns="http://www.w3.org/2000/svg" width="200mm" height="703" viewBox="0 0 20000 18600"><path fill="#73AF00" stroke="#73AF00" d="M10000 3351v15249l-7021-6376C1629 11001 629 9397 203 7593-110 6268 32 5532 32 5532 295 2567 2389 79 5295 79c2159 0 3893 1346 4705 3272z"/><path fill="#FF4B55" stroke="#FF4B55" d="M10000 3272v15249l7021-6376c1350-1223 2350-2826 2776-4631 313-1325 171-2061 171-2061C19705 2488 17611 0 14705 0c-2159 0-3893 1346-4705 3272z"/><ellipse fill="#FFE15A" cx="10000" cy="9261" rx="2533" ry="2534"/></svg>