<svg xmlns="http://www.w3.org/2000/svg" viewBox="0 0 20076 22308" class="metronomeSizing"><defs><style>@keyframes pendulum{
  0%{ transform: rotate(30deg);}
  50%{ transform: rotate(-30deg);}
  100%{transform: rotate(30deg);}
}
#pendulum{transform-origin: center 22000px}.fil3{fill:#4c4c59}.fil2{fill:#676775}.fil1{fill:#7a4e30}.fil0{fill:#a36338}.fil9{fill:#a3a2a8}.fil7{fill:#c1763e}.fil8{fill:#c6c5ca}.fil6{fill:#e08d48}.fil4{fill:#ffd278}</style></defs><path d="M14148 3777H5928L4230 14113h11612L14148 3777z" class="fil0"/><path d="M5928 3777L4230 14113h2215L8143 3777H5928z" class="fil1"/><path d="M12950 3777H7126L5428 14113h9220L12950 3777z" class="fil2"/><path d="M9870 3777h1813v10336H9870V3777z" class="fil3"/><path d="M7126 3777L5428 14113h1025L8152 3777H7126z" class="fil3"/><path d="M9173 3777h1813v10336H9173V3777z" class="fil4"/><path fill="#ffbf4d" d="M9173 3777h906v10336h-906V3777z"/><path d="M4723 22308c-221-2-398-182-398-402v-1497h2485v1497c0 221-180 402-402 402H4723z" class="fil0"/><path d="M13750 22308a402 402 0 0 1-402-402v-1497h2490v1497c0 221-181 402-402 402h-1690 4z" class="fil0"/><path d="M13348 20409h2490v1218h-2490v-1218z" class="fil1"/><path d="M4325 20409h2489v1218H4325v-1218z" class="fil1"/><path d="M10563 18091a697 697 0 0 1-697-697c0-385 312-697 697-697s697 312 697 697-312 697-697 697z" class="fil7"/><path d="M10079 17796a697 697 0 0 1-697-697c0-385 312-697 697-697s698 312 698 697-313 697-698 697z" class="fil4"/><path d="M5924 3818l324-1977c50-308 316-533 636-533h6308c316 0 587 225 636 533l328 1977H5920h4z" class="fil6"/><path d="M9099 1308H6884c-320 0-586 225-636 533l-328 1977h2215l328-1977c49-308 316-533 636-533z" class="fil7"/>
<g id="pendulum">
<path d="M10303 2526h-1c-123 124-323 124-446 0-60-60-94-141-93-226l-3-1981a319.4 319.4 0 0 1 545-226c60 60 93 141 93 226l-6 1978c3 85-30 168-89 229z" class="fil8"/>
<path d="M10158 2300l-3-1981c0-99 46-186 119-247-126-100-307-90-421 24-60 59-93 139-93 223l3 1981c0 84 33 164 93 223 113 114 295 124 420 23-75-58-121-145-118-246z" class="fil9"/>
<path d="M10395 14344h-635l3-9904 632-35v9939z" class="fil8"/>
<path d="M10158 4440h-395l-3 9904h395l3-9904z" class="fil9"/>
<path d="M10946 4417c-101 102-237 162-385 160h-899c-147 0-287-58-391-161-75-75-127-171-149-274l-246-1204c-39-180 17-368 148-499 103-103 243-160 388-159l1401-3c146-1 287 56 390 159 132 132 187 323 147 505l-250 1201c-22 101-73 195-147 269-1 1-3 2-4 3l-3 3z" class="fil2 peso1"/>
<path d="M10126 4142l-250-1201c-39-181 16-370 148-502 102-102 241-160 386-159h406l-1407-3a537.7 537.7 0 0 0-423 203c-105 127-145 296-110 458l246 1204c22 103 74 199 149 274a555 555 0 0 0 391 161h899l55-3c-241-21-441-198-490-432z" class="fil3 peso2"/>
</g>
<path d="M3833 21147c-189 0-370-82-493-225-123-144-172-329-143-513l1042-6337h11599l1042 6337c28 184-25 369-144 513a649 649 0 0 1-492 225H3833z" class="fil6"/>
<path d="M5555 20922c-123-144-172-329-143-513l791-4824c62-369 369-652 747-672l8945-480-57-369H4239l-1042 6345c-29 184 24 369 143 513a651 651 0 0 0 493 225h2214c-192 0-369-82-492-225z" class="fil7"/>
</svg>