<svg xmlns="http://www.w3.org/2000/svg" viewBox="0 0 475.1 475.1"><path d="M442.8 265.5c9.4-14 14-29.6 14-46.5a70 70 0 0 0-21.7-51.1 70.3 70.3 0 0 0-51.4-21.7h-50.2a125.4 125.4 0 0 0 13.7-54.8c0-22.3-3.3-40-10-53.1a62.7 62.7 0 0 0-29.1-29A97.5 97.5 0 0 0 265 0c-9.8 0-18.3 3.5-25.7 10.6-8.2 8-14.1 18.2-17.7 30.8a401.5 401.5 0 0 0-8.7 36.1 48.5 48.5 0 0 1-10.2 24.4 549 549 0 0 0-30.5 36.6c-19.3 25-32.3 39.7-39.1 44.2H54.8c-10 0-18.7 3.6-25.8 10.7a35.2 35.2 0 0 0-10.7 25.9V402c0 10 3.5 18.7 10.7 25.8a35.2 35.2 0 0 0 25.8 10.7H137c4.2 0 17.4 3.9 39.4 11.5 23.5 8.2 44 14.4 61.9 18.7 17.8 4.3 35.8 6.4 54 6.4H329.3c26.8 0 48.4-7.7 64.8-23s24.5-36.2 24.3-62.7a80.4 80.4 0 0 0 17.1-50.8c0-4.2-.3-8.3-.9-12.3a82 82 0 0 0 8.3-60.8zM86 396.5a17.6 17.6 0 0 1-12.8 5.5c-5 0-9.2-1.8-12.8-5.4a17.6 17.6 0 0 1-5.5-12.9c0-5 1.8-9.2 5.5-12.8 3.6-3.6 7.9-5.4 12.8-5.4 5 0 9.2 1.8 12.8 5.4 3.7 3.6 5.5 7.9 5.5 12.8 0 5-1.8 9.3-5.5 12.9zm328.2-154c-4 8.7-9.1 13.1-15.2 13.3a51.3 51.3 0 0 1 10 29.4c0 13.2-5 24.5-15.2 34 3.5 6.1 5.2 12.7 5.2 19.7s-1.7 14-5 21c-3.4 7-7.9 12-13.6 15 1 5.7 1.4 11 1.4 16 0 31.7-18.2 47.6-54.8 47.6h-34.5c-25 0-57.5-6.9-97.7-20.8l-8.2-3-10.2-3.6a399.6 399.6 0 0 0-20.8-6.4A129.2 129.2 0 0 0 137 402h-9.2V219.3h9.2c3 0 6.4-.9 10-2.6 3.8-1.7 7.6-4.3 11.5-7.7a162.4 162.4 0 0 0 22.4-22.7 565.4 565.4 0 0 0 25.4-32.4c10.5-13 17.8-21.6 22-26a72.5 72.5 0 0 0 17-31.2 517 517 0 0 0 8.7-35.9A47.2 47.2 0 0 1 265 36.6c18.2 0 30.4 4.4 36.5 13.4 6.1 9 9.1 22.7 9.1 41.4 0 11.2-4.5 26.5-13.7 45.8-9.1 19.3-13.7 34.5-13.7 45.5h100.5c9.6 0 18 3.7 25.4 11a34.8 34.8 0 0 1 11.2 25.6c0 6.6-2 14.4-6.2 23.1z" fill="#1877f2"/></svg>