<svg xmlns="http://www.w3.org/2000/svg" viewBox="0 0 21000 21000"><path d="M16570 4676c0-1131-920-2051-2050-2051h-2215v-106c0-655-533-1188-1189-1188h-760C10009 534 9214 0 8325 0h-79c-889 0-1684 534-2031 1331h-761c-655 0-1188 533-1188 1188v106H2051C767 2625 0 3238 0 4266v14683c0 1131 920 2051 2051 2051h12469c1130 0 2050-920 2050-2051V4676zm-5086-1067H5086V2519c0-203 165-368 368-368h1050c185 0 348-124 396-302 164-606 718-1029 1346-1029h79c628 0 1181 423 1345 1029a411 411 0 0 0 396 302h1050c203 0 368 165 368 368v1090zm4266 15340c0 679-552 1231-1230 1231H2051c-679 0-1231-552-1231-1231V4266c0-203 0-821 1231-821h2215v575c0 226 183 410 410 410h7219c226 0 410-184 410-410v-575h2215c678 0 1230 552 1230 1231v14273z"/><path d="M21000 7773c0-58-12-115-36-168l-1312-2933a410.7 410.7 0 1 0-749 0l-1313 2933c-23 53-35 110-35 168v12248c0 540 439 979 979 979h1487c540 0 979-439 979-979V7773zm-820 10503h-1805V8183h1805v10093zm-903-12432l680 1518h-1359l679-1518zm903 13252v925c0 87-72 159-159 159h-1487c-88 0-159-72-159-159v-925h1805z"/><path d="M3781 9383h1806c333 0 603-270 603-602v-301c0-167-135-301-302-301-166 0-301 134-301 301v301H3781V6975h903c167 0 301-135 301-301 0-167-134-301-301-301h-903a602 602 0 0 0-602 602v1806c0 332 270 602 602 602zm0 0z"/><path d="M4596 7364c-118-114-306-113-422 3-116 117-118 304-4 423l603 602c56 56 133 88 212 88h25c89-8 169-53 220-125l1506-2108c62-87 73-202 28-299-44-98-137-165-245-175-107-11-211 37-273 124L4947 7715l-351-351zm0 0z"/><path d="M3781 14305h1806c333 0 603-270 603-602v-301c0-167-135-301-302-301-166 0-301 134-301 301v301H3781v-1807h903c167 0 301-134 301-301 0-166-134-301-301-301h-903c-332 0-602 270-602 602v1807c0 332 270 602 602 602zm0 0z"/><path d="M4596 12286c-118-114-306-113-422 3-116 117-118 304-4 422l603 602c56 57 133 89 212 89h25c89-8 169-54 220-126l1506-2107c62-87 73-202 28-299-44-98-137-165-245-175-107-11-211 37-273 124l-1299 1818-351-351zm0 0z"/><path d="M3781 19227h1806c333 0 603-270 603-602v-301a301.5 301.5 0 0 0-603 0v301H3781v-1807h903c167 0 301-134 301-301 0-166-134-301-301-301h-903c-332 0-602 270-602 602v1807c0 332 270 602 602 602zm0 0z"/><path d="M4596 17208c-118-114-306-113-422 3s-118 304-4 422l603 602c56 57 133 89 212 89h25c89-8 169-54 220-126l1506-2107c62-88 73-202 28-300a300 300 0 0 0-518-50l-1299 1818-351-351zm0 0z"/><path d="M8595 7492h2178c187 0 340-152 340-340s-153-340-340-340H8595c-188 0-340 152-340 340s152 340 340 340z"/><path d="M8595 8944h3629c188 0 340-153 340-341s-152-340-340-340H8595c-188 0-340 152-340 340s152 341 340 341z"/><path d="M8595 12414h2178c187 0 340-152 340-340s-153-340-340-340H8595c-188 0-340 152-340 340s152 340 340 340z"/><path d="M8595 13865h3629c188 0 340-152 340-340s-152-340-340-340H8595c-188 0-340 152-340 340s152 340 340 340z"/><path d="M8595 17336h2178c187 0 340-152 340-340s-153-340-340-340H8595c-188 0-340 152-340 340s152 340 340 340z"/><path d="M8595 18787h3629c188 0 340-152 340-340s-152-340-340-340H8595c-188 0-340 152-340 340s152 340 340 340z"/></svg>